<?xml version="1.0" encoding="UTF-8" standalone="no"?>
<svg
   xmlns:dc="http://purl.org/dc/elements/1.1/"
   xmlns:cc="http://creativecommons.org/ns#"
   xmlns:rdf="http://www.w3.org/1999/02/22-rdf-syntax-ns#"
   xmlns:svg="http://www.w3.org/2000/svg"
   xmlns="http://www.w3.org/2000/svg"
   xmlns:sodipodi="http://sodipodi.sourceforge.net/DTD/sodipodi-0.dtd"
   xmlns:inkscape="http://www.inkscape.org/namespaces/inkscape"
   enable-background="new 0 0 1024 1024"
   version="1.1"
   viewBox="0 0 1024 1024"
   xml:space="preserve"
   id="svg44"
   sodipodi:docname="logo.svg"
   inkscape:version="0.92.3 (2405546, 2018-03-11)"><metadata
   id="metadata50"><rdf:RDF><cc:Work
       rdf:about=""><dc:format>image/svg+xml</dc:format><dc:type
         rdf:resource="http://purl.org/dc/dcmitype/StillImage" /></cc:Work></rdf:RDF></metadata><defs
   id="defs48" /><sodipodi:namedview
   pagecolor="#ffffff"
   bordercolor="#666666"
   borderopacity="1"
   objecttolerance="10"
   gridtolerance="10"
   guidetolerance="10"
   inkscape:pageopacity="0"
   inkscape:pageshadow="2"
   inkscape:window-width="1920"
   inkscape:window-height="1019"
   id="namedview46"
   showgrid="false"
   inkscape:zoom="0.65186406"
   inkscape:cx="593.43878"
   inkscape:cy="557.51277"
   inkscape:window-x="0"
   inkscape:window-y="33"
   inkscape:window-maximized="1"
   inkscape:current-layer="svg44" />
<style
   type="text/css"
   id="style2">
	.st0{stroke:#000000;stroke-width:1.3708;stroke-miterlimit:10;}
	.st1{fill:#808080;}
</style>
	<rect
   class="st0"
   width="1024"
   height="1024"
   id="rect4"
   style="fill:#1a1a1a;stroke:#000000;stroke-width:1.37080002;stroke-miterlimit:10"
   x="0"
   y="0"
   inkscape:export-xdpi="96"
   inkscape:export-ydpi="96" />
		<path
   class="st1"
   d="m112.4 875.5c0-19.9 16.1-36.1 36-36.1 9.9 0 18.8 4 25.4 10.5l-13.4 13.3c-3.1-2.9-7.1-4.8-12-4.8-9 0-17 7.2-17 17.1s8.2 17.1 17 17.1c5.7 0 11-2.8 13.9-7.1h-13.9v-12.7h36.1v2.7c0 19.9-16.2 36.1-36.1 36.1s-36-16.2-36-36.1z"
   id="path6"
   style="fill:#a08563;fill-opacity:0.94444442"
   inkscape:export-xdpi="96"
   inkscape:export-ydpi="96" />
		<path
   class="st1"
   d="m223.4 839.5h8.5l33.9 72.1h-18.9l-4.4-9.4h-29.5l-4.3 9.4h-18.8l33.5-72.1zm11.6 46.7l-7.3-15.9-7.4 15.9h14.7z"
   id="path8"
   style="fill:#a08563;fill-opacity:0.94444442"
   inkscape:export-xdpi="96"
   inkscape:export-ydpi="96" />
		<path
   class="st1"
   d="m274.9 839.5h8.6l29.4 26.7 29.3-26.7h8.6v72.1h-19v-37l-18.8 17.2-18.9-17.1v36.9h-19v-72.1z"
   id="path10"
   style="fill:#a08563;fill-opacity:0.94444442"
   inkscape:export-xdpi="96"
   inkscape:export-ydpi="96" />
		<path
   class="st1"
   d="M366.2,839.5H411v15.7h-25.9v11.7H408v16h-22.9v13.3H411v15.5h-44.8V839.5z"
   id="path12"
   style="fill:#a08563;fill-opacity:0.94444442"
   inkscape:export-xdpi="96"
   inkscape:export-ydpi="96" />
		<path
   class="st1"
   d="m444.1 889.6h19.2c0 3.1 2.8 5.6 7 5.6 3.8 0 6.8-2.2 6.8-5.6 0-3.6-3.3-5.7-7-5.7-13.9 0-26-9.9-26-22.2s10.9-22.2 26.2-22.2c14.4 0 26.1 9.8 26.1 22.1h-19.1c0-3-3-5.6-6.9-5.6-4.1 0-6.9 2.2-6.9 5.6s2.8 5.7 6.9 5.7c14.7 0 26.1 10 26.1 22.2 0 12.3-11.3 22.1-25.8 22.1-15.8 0-26.6-10.3-26.6-22z"
   id="path14"
   style="fill:#a08563;fill-opacity:0.94444442"
   inkscape:export-xdpi="96"
   inkscape:export-ydpi="96" />
		<path
   class="st1"
   d="m524.8 858.2h-18.7v-18.8h56.8v18.8h-19.1v53.4h-18.9v-53.4z"
   id="path16"
   style="fill:#a08563;fill-opacity:0.94444442"
   inkscape:export-xdpi="96"
   inkscape:export-ydpi="96" />
		<path
   class="st1"
   d="m574.9 883.1v-43.6h19v43.4c0 5.2 4.2 9.4 9.4 9.4s9.4-4.2 9.4-9.4v-43.4h19v43.6c0 15.9-12.8 28.5-28.5 28.5s-28.3-12.6-28.3-28.5z"
   id="path18"
   style="fill:#a08563;fill-opacity:0.94444442"
   inkscape:export-xdpi="96"
   inkscape:export-ydpi="96" />
		<path
   class="st1"
   d="m647.2 839.5h26.7c19.9 0 36.1 16.2 36.1 36.1s-16.2 36.1-36.1 36.1h-26.7v-72.2zm26.8 53.4c9.4 0 17.1-7.7 17.1-17.1 0-9.3-7.7-17-17.1-17h-8v34.1h8z"
   id="path20"
   style="fill:#a08563;fill-opacity:0.94444442"
   inkscape:export-xdpi="96"
   inkscape:export-ydpi="96" />
		<path
   class="st1"
   d="M723,839.5h18.9v72.1H723V839.5z"
   id="path22"
   style="fill:#a08563;fill-opacity:0.94444442"
   inkscape:export-xdpi="96"
   inkscape:export-ydpi="96" />
		<path
   class="st1"
   d="m790.9 911.6c-19.9 0-36-16.1-36-36s16.1-36.1 36-36.1 36.1 16.2 36.1 36.1c-0.1 19.9-16.2 36-36.1 36zm0-53.3c-9.4 0-17.1 7.7-17.1 17.2 0 9.4 7.7 17.2 17.1 17.2 9.5 0 17.2-7.8 17.2-17.2 0-9.5-7.7-17.2-17.2-17.2z"
   id="path24"
   style="fill:#a08563;fill-opacity:0.94444442"
   inkscape:export-xdpi="96"
   inkscape:export-ydpi="96" />
		<path
   class="st1"
   d="m834.6 889.6h19.2c0 3.1 2.8 5.6 7 5.6 3.8 0 6.8-2.2 6.8-5.6 0-3.6-3.3-5.7-7-5.7-13.9 0-26-9.9-26-22.2s10.9-22.2 26.2-22.2c14.4 0 26.1 9.8 26.1 22.1h-19.1c0-3-3-5.6-6.9-5.6-4.1 0-6.9 2.2-6.9 5.6s2.8 5.7 6.9 5.7c14.7 0 26.1 10 26.1 22.2 0 12.3-11.3 22.1-25.8 22.1-15.8 0-26.6-10.3-26.6-22z"
   id="path26"
   style="fill:#a08563;fill-opacity:0.94444442"
   inkscape:export-xdpi="96"
   inkscape:export-ydpi="96" />
		<path
   class="st1"
   d="m112.1 693.2h12.4l42.7 38.8 42.6-38.8h12.4v104.8h-27.7v-53.8l-27.4 25-27.5-24.9v53.6h-27.7v-104.7z"
   id="path28"
   style="fill:#a08563;fill-opacity:0.94444442"
   inkscape:export-xdpi="96"
   inkscape:export-ydpi="96" />
		<path
   class="st1"
   d="M244.6,693.2h65.1v22.8h-37.6v17h33.2v23.2h-33.2v19.3h37.6v22.5h-65.1V693.2z"
   id="path30"
   style="fill:#a08563;fill-opacity:0.94444442"
   inkscape:export-xdpi="96"
   inkscape:export-ydpi="96" />
		<path
   class="st1"
   d="m330.6 693.2h38.8c28.9 0 52.4 23.5 52.4 52.4s-23.5 52.4-52.4 52.4h-38.8v-104.8zm39 77.6c13.7 0 24.9-11.2 24.9-24.9 0-13.5-11.2-24.7-24.9-24.7h-11.6v49.6h11.6z"
   id="path32"
   style="fill:#a08563;fill-opacity:0.94444442"
   inkscape:export-xdpi="96"
   inkscape:export-ydpi="96" />
		<path
   class="st1"
   d="M440.7,693.2h27.5v104.8h-27.5V693.2z"
   id="path34"
   style="fill:#a08563;fill-opacity:0.94444442"
   inkscape:export-xdpi="96"
   inkscape:export-ydpi="96" />
		<path
   class="st1"
   d="m539.3 797.9c-28.9 0-52.2-23.3-52.2-52.2s23.3-52.5 52.2-52.5 52.4 23.6 52.4 52.5-23.5 52.2-52.4 52.2zm0-77.4c-13.7 0-24.9 11.2-24.9 25 0 13.7 11.2 25 24.9 25 13.8 0 25-11.3 25-25 0-13.8-11.2-25-25-25z"
   id="path36"
   style="fill:#a08563;fill-opacity:0.94444442"
   inkscape:export-xdpi="96"
   inkscape:export-ydpi="96" />
		<path
   class="st1"
   d="m605.6 745.5c0-28.9 23.5-52.4 52.4-52.4 14.4 0 27.4 5.7 36.9 15.2l-19.3 19.4c-4.6-4.5-10.6-6.8-17.6-6.8-14.2 0-24.6 10.3-24.6 24.6 0 14.2 10.3 24.6 24.6 24.6 7.1 0 13.3-2.5 17.6-7l19.6 19.3c-9.8 9.8-23.6 15.5-37.2 15.5-28.9 0-52.4-23.5-52.4-52.4z"
   id="path38"
   style="fill:#a08563;fill-opacity:0.94444442"
   inkscape:export-xdpi="96"
   inkscape:export-ydpi="96" />
		<path
   class="st1"
   d="m713.3 693.2h44.1c21.2 0 38.5 17.3 38.5 38.5 0 11.2-4.9 21.2-12.4 28.2l22.2 38h-31.7l-16.2-27.8h-17v27.8h-27.5v-104.7zm44.6 53.2c8.4 0 15.1-6.6 15.1-14.9 0-8.4-6.7-15.1-15.1-15.1h-17v30h17z"
   id="path40"
   style="fill:#a08563;fill-opacity:0.94444442"
   inkscape:export-xdpi="96"
   inkscape:export-ydpi="96" />
		<path
   class="st1"
   d="M821.8,693.2h65.1v22.8h-37.6v17h33.2v23.2h-33.2v19.3h37.6v22.5h-65.1V693.2z"
   id="path42"
   style="fill:#a08563;fill-opacity:0.94444442"
   inkscape:export-xdpi="96"
   inkscape:export-ydpi="96" />
</svg>