<?xml version="1.0" encoding="UTF-8" standalone="no"?>
<svg
   xmlns:dc="http://purl.org/dc/elements/1.1/"
   xmlns:cc="http://creativecommons.org/ns#"
   xmlns:rdf="http://www.w3.org/1999/02/22-rdf-syntax-ns#"
   xmlns:svg="http://www.w3.org/2000/svg"
   xmlns="http://www.w3.org/2000/svg"
   xmlns:sodipodi="http://sodipodi.sourceforge.net/DTD/sodipodi-0.dtd"
   xmlns:inkscape="http://www.inkscape.org/namespaces/inkscape"
   version="1.1"
   viewBox="0 0 775 220"
   id="svg859"
   sodipodi:docname="name2.svg"
   inkscape:version="0.92.4 (5da689c313, 2019-01-14)"
   width="775"
   height="220">
  <metadata
     id="metadata865">
    <rdf:RDF>
      <cc:Work
         rdf:about="">
        <dc:format>image/svg+xml</dc:format>
        <dc:type
           rdf:resource="http://purl.org/dc/dcmitype/StillImage" />
        <dc:title></dc:title>
      </cc:Work>
    </rdf:RDF>
  </metadata>
  <defs
     id="defs863" />
  <sodipodi:namedview
     pagecolor="#ffffff"
     bordercolor="#666666"
     borderopacity="1"
     objecttolerance="10"
     gridtolerance="10"
     guidetolerance="10"
     inkscape:pageopacity="0"
     inkscape:pageshadow="2"
     inkscape:window-width="1920"
     inkscape:window-height="1022"
     id="namedview861"
     showgrid="false"
     showguides="true"
     inkscape:guide-bbox="true"
     inkscape:zoom="1"
     inkscape:cx="407.81232"
     inkscape:cy="161.06745"
     inkscape:window-x="0"
     inkscape:window-y="32"
     inkscape:window-maximized="1"
     inkscape:current-layer="svg859"
     inkscape:snap-bbox="true"
     inkscape:snap-global="true">
    <inkscape:grid
       type="xygrid"
       id="grid885" />
  </sodipodi:namedview>
  <style
     type="text/css"
     id="style815">.st1{fill:gray}</style>
  <g
     id="g1021"
     transform="matrix(3.4917985,0,0,3.4951455,-502.76528,-587.18444)">
    <g
       transform="translate(0.79492,-2.63281)"
       id="flowRoot867"
       style="font-style:normal;font-weight:normal;font-size:40px;line-height:1.25;font-family:sans-serif;letter-spacing:0px;word-spacing:0px;fill:#987f5e;fill-opacity:1;stroke:none"
       aria-label="MEDIOCRE">
      <path
         inkscape:connector-curvature="0"
         id="path887"
         style="font-style:normal;font-variant:normal;font-weight:normal;font-stretch:normal;font-family:'Big John PRO';-inkscape-font-specification:'Big John PRO'"
         d="m 143.20508,200.63281 h 7.92 v -15.36 l 7.88,7.12 7.84,-7.16 v 15.4 h 7.92 v -30 h -3.56 l -12.2,11.12 -12.24,-11.12 h -3.56 z" />
      <path
         inkscape:connector-curvature="0"
         id="path889"
         style="font-style:normal;font-variant:normal;font-weight:normal;font-stretch:normal;font-family:'Big John PRO';-inkscape-font-specification:'Big John PRO'"
         d="m 181.1832,200.63281 h 18.64 v -6.44 h -10.76 v -5.52 h 9.52 v -6.64 h -9.52 v -4.88 h 10.76 v -6.52 h -18.64 z" />
      <path
         inkscape:connector-curvature="0"
         id="path891"
         style="font-style:normal;font-variant:normal;font-weight:normal;font-stretch:normal;font-family:'Big John PRO';-inkscape-font-specification:'Big John PRO'"
         d="m 205.79258,200.63281 h 11.12 c 8.28,0 15,-6.72 15,-15 0,-8.28 -6.72,-15 -15,-15 h -11.12 z m 7.84,-7.76 v -14.2 h 3.32 c 3.92,0 7.12,3.2 7.12,7.08 0,3.92 -3.2,7.12 -7.12,7.12 z" />
      <path
         inkscape:connector-curvature="0"
         id="path893"
         style="font-style:normal;font-variant:normal;font-weight:normal;font-stretch:normal;font-family:'Big John PRO';-inkscape-font-specification:'Big John PRO'"
         d="m 237.27695,200.63281 h 7.88 v -30 h -7.88 z" />
      <path
         inkscape:connector-curvature="0"
         id="path895"
         style="font-style:normal;font-variant:normal;font-weight:normal;font-stretch:normal;font-family:'Big John PRO';-inkscape-font-specification:'Big John PRO'"
         d="m 280.52445,185.67281 c 0,-8.28 -6.72,-15.04 -15,-15.04 -8.28,0 -14.96,6.76 -14.96,15.04 0,8.28 6.68,14.96 14.96,14.96 8.28,0 15,-6.68 15,-14.96 z m -7.84,-0.04 c 0,3.92 -3.2,7.16 -7.16,7.16 -3.92,0 -7.12,-3.24 -7.12,-7.16 0,-3.96 3.2,-7.16 7.12,-7.16 3.96,0 7.16,3.2 7.16,7.16 z" />
      <path
         inkscape:connector-curvature="0"
         id="path897"
         style="font-style:normal;font-variant:normal;font-weight:normal;font-stretch:normal;font-family:'Big John PRO';-inkscape-font-specification:'Big John PRO'"
         d="m 299.54883,200.63281 c 3.88,0 7.84,-1.64 10.64,-4.44 l -5.6,-5.52 c -1.24,1.28 -3,2 -5.04,2 -4.08,0 -7.04,-2.96 -7.04,-7.04 0,-4.08 2.96,-7.04 7.04,-7.04 2,0 3.72,0.68 5.04,1.96 l 5.52,-5.56 c -2.72,-2.72 -6.44,-4.36 -10.56,-4.36 -8.28,0 -15,6.72 -15,15 0,8.28 6.72,15 15,15 z" />
      <path
         inkscape:connector-curvature="0"
         id="path899"
         style="font-style:normal;font-variant:normal;font-weight:normal;font-stretch:normal;font-family:'Big John PRO';-inkscape-font-specification:'Big John PRO'"
         d="m 315.40195,200.63281 h 7.88 v -7.96 h 4.88 l 4.64,7.96 h 9.08 l -6.36,-10.88 c 2.16,-2 3.56,-4.88 3.56,-8.08 0,-6.08 -4.96,-11.04 -11.04,-11.04 h -12.64 z m 7.88,-14.76 v -8.6 h 4.88 c 2.4,0 4.32,1.92 4.32,4.32 0,2.4 -1.92,4.28 -4.32,4.28 z" />
      <path
         inkscape:connector-curvature="0"
         id="path901"
         style="font-style:normal;font-variant:normal;font-weight:normal;font-stretch:normal;font-family:'Big John PRO';-inkscape-font-specification:'Big John PRO'"
         d="m 346.4957,200.63281 h 18.64 v -6.44 h -10.76 v -5.52 h 9.52 v -6.64 h -9.52 v -4.88 h 10.76 v -6.52 h -18.64 z" />
    </g>
    <g
       id="flowRoot875"
       style="font-style:normal;font-weight:normal;font-size:40px;line-height:1.25;font-family:sans-serif;letter-spacing:0px;word-spacing:0px;fill:#000000;fill-opacity:1;stroke:none"
       transform="matrix(0.81041797,0,0,0.83610816,22.285166,-44.613618)"
       aria-label="SOFTWORKS">
      <path
         inkscape:connector-curvature="0"
         id="path904"
         style="font-style:normal;font-variant:normal;font-weight:normal;font-stretch:normal;font-family:'Big John PRO';-inkscape-font-specification:'Big John PRO';fill:#987f5e;fill-opacity:1"
         d="m 161.20875,329.57227 c 6,0 10.72,-4.08 10.72,-9.2 0,-5.08 -4.72,-9.24 -10.84,-9.24 -1.72,0 -2.88,-0.96 -2.88,-2.36 0,-1.4 1.16,-2.32 2.88,-2.32 1.64,0 2.88,1.08 2.88,2.32 h 7.96 c 0,-5.12 -4.84,-9.2 -10.84,-9.2 -6.36,0 -10.88,4.12 -10.88,9.24 0,5.12 5,9.24 10.8,9.24 1.56,0 2.92,0.88 2.92,2.36 0,1.4 -1.24,2.32 -2.84,2.32 -1.76,0 -2.92,-1.04 -2.92,-2.32 h -8 c 0,4.88 4.48,9.16 11.04,9.16 z" />
      <path
         inkscape:connector-curvature="0"
         id="path906"
         style="font-style:normal;font-variant:normal;font-weight:normal;font-stretch:normal;font-family:'Big John PRO';-inkscape-font-specification:'Big John PRO';fill:#987f5e;fill-opacity:1"
         d="m 205.85062,314.61227 c 0,-8.28 -6.72,-15.04 -15,-15.04 -8.28,0 -14.96,6.76 -14.96,15.04 0,8.28 6.68,14.96 14.96,14.96 8.28,0 15,-6.68 15,-14.96 z m -7.84,-0.04 c 0,3.92 -3.19999,7.16 -7.16,7.16 -3.92,0 -7.12,-3.24 -7.12,-7.16 0,-3.96 3.2,-7.16 7.12,-7.16 3.96001,0 7.16,3.2 7.16,7.16 z" />
      <path
         inkscape:connector-curvature="0"
         id="path908"
         style="font-style:normal;font-variant:normal;font-weight:normal;font-stretch:normal;font-family:'Big John PRO';-inkscape-font-specification:'Big John PRO';fill:#987f5e;fill-opacity:1"
         d="m 211.275,329.57227 h 7.88 v -11.96 h 9.64 v -6.68 h -9.64 v -4.88 h 10.92 v -6.48 h -18.8 z" />
      <path
         inkscape:connector-curvature="0"
         id="path910"
         style="font-style:normal;font-variant:normal;font-weight:normal;font-stretch:normal;font-family:'Big John PRO';-inkscape-font-specification:'Big John PRO';fill:#987f5e;fill-opacity:1"
         d="m 242.44062,329.57227 h 7.88 v -22.2 h 7.96 v -7.84 h -23.64 v 7.84 h 7.8 z" />
      <path
         inkscape:connector-curvature="0"
         id="path912"
         style="font-style:normal;font-variant:normal;font-weight:normal;font-stretch:normal;font-family:'Big John PRO';-inkscape-font-specification:'Big John PRO';fill:#987f5e;fill-opacity:1"
         d="m 270.53687,329.57227 h 7.96 l 2.96001,-8.88 2.88,8.88 h 7.95999 l 9.88,-30 h -8 l -5.83999,17.84 -2.92001,-8.8 h -7.95999 l -2.92001,8.84 -5.84,-17.88 h -8 z" />
      <path
         inkscape:connector-curvature="0"
         id="path914"
         style="font-style:normal;font-variant:normal;font-weight:normal;font-stretch:normal;font-family:'Big John PRO';-inkscape-font-specification:'Big John PRO';fill:#987f5e;fill-opacity:1"
         d="m 333.74125,314.61227 c 0,-8.28 -6.72,-15.04 -15,-15.04 -8.28,0 -14.96,6.76 -14.96,15.04 0,8.28 6.68,14.96 14.96,14.96 8.28,0 15,-6.68 15,-14.96 z m -7.84,-0.04 c 0,3.92 -3.2,7.16 -7.16,7.16 -3.92,0 -7.12,-3.24 -7.12,-7.16 0,-3.96 3.2,-7.16 7.12,-7.16 3.96,0 7.16,3.2 7.16,7.16 z" />
      <path
         inkscape:connector-curvature="0"
         id="path916"
         style="font-style:normal;font-variant:normal;font-weight:normal;font-stretch:normal;font-family:'Big John PRO';-inkscape-font-specification:'Big John PRO';fill:#987f5e;fill-opacity:1"
         d="m 339.16562,329.57227 h 7.88 v -7.96 h 4.88001 l 4.63999,7.96 h 9.08 l -6.36,-10.88 c 2.16,-2 3.56,-4.88 3.56,-8.08 0,-6.08 -4.96,-11.04 -11.03999,-11.04 h -12.64001 z m 7.88,-14.76 v -8.6 h 4.88001 c 2.39999,0 4.32,1.92 4.32,4.32 0,2.4 -1.92001,4.28 -4.32,4.28 z" />
      <path
         inkscape:connector-curvature="0"
         id="path918"
         style="font-style:normal;font-variant:normal;font-weight:normal;font-stretch:normal;font-family:'Big John PRO';-inkscape-font-specification:'Big John PRO';fill:#987f5e;fill-opacity:1"
         d="m 370.25937,329.57227 h 7.88 v -7.32 l 1.88001,-1.92 9.15999,9.24 h 11.28001 l -14.88,-14.92 15.11999,-15.08 h -11.04 l -11.52,11.44 v -11.44 h -7.88 z" />
      <path
         inkscape:connector-curvature="0"
         id="path920"
         style="font-style:normal;font-variant:normal;font-weight:normal;font-stretch:normal;font-family:'Big John PRO';-inkscape-font-specification:'Big John PRO';fill:#987f5e;fill-opacity:1"
         d="m 413.31812,329.57227 c 6,0 10.72,-4.08 10.72,-9.2 0,-5.08 -4.72,-9.24 -10.84,-9.24 -1.72,0 -2.88,-0.96 -2.88,-2.36 0,-1.4 1.16,-2.32 2.88,-2.32 1.64,0 2.88,1.08 2.88,2.32 h 7.96 c 0,-5.12 -4.84,-9.2 -10.84,-9.2 -6.36,0 -10.88,4.12 -10.88,9.24 0,5.12 5,9.24 10.80001,9.24 1.56,0 2.91999,0.88 2.91999,2.36 0,1.4 -1.23999,2.32 -2.84,2.32 -1.75999,0 -2.92,-1.04 -2.92,-2.32 h -8 c 0,4.88 4.48,9.16 11.04,9.16 z" />
    </g>
  </g>
</svg>
